# xmcd
#
# Track frame offsets: 
#        150
#        17073
#        34788
#        53562
#        75628
#        98844
#        116359
#        130242
#        148235
#        171081
#
# Disc length: 2431 seconds
#
# Revision: 0
# Processed by: cddbd v1.5.2PL0 Copyright (c) Steve Scherf et al.
# Submitted via: ExactAudioCopy v0.95b1
#
DISCID=7c097d0a
DTITLE=Joss Stone - LP1
DYEAR=1900
DGENRE=
TTITLE0=newborn
TTITLE1=karma
TTITLE2=don't start lying to me now
TTITLE3=last one to know
TTITLE4=drive all night
TTITLE5=cry myself to sleep
TTITLE6=somehow
TTITLE7=landlord
TTITLE8=boat yard
TTITLE9=take good care
EXTD=
EXTT0=
EXTT1=
EXTT2=
EXTT3=
EXTT4=
EXTT5=
EXTT6=
EXTT7=
EXTT8=
EXTT9=
PLAYORDER=
